# xmcd
#
# Track frame offsets:
#	182
#	15735
#	29970
#	43927
#	62045
#	75127
#	93967
#	114420
#	126975
#	141767
#
# Disc length: 2135 seconds
#
# Revision: 0
# Processed by: cddbd v1.5.2PL0 Copyright (c) Steve Scherf et al.
# Submitted via: EasyCDDAExtractor 12.0.1.1
#
DISCID=8308550a
DTITLE=Lissette - Quiereme
DYEAR=1976
DGENRE=Latin
TTITLE0=Quiereme... Tengo Frio...
TTITLE1=Por Favor... Fue Sin Saber
TTITLE2=Corazon
TTITLE3=Amores Que No Son De La Mañana
TTITLE4=Canta Canta
TTITLE5=Dejalo Volver
TTITLE6=Construccion
TTITLE7=Casi Mujer...
TTITLE8=Antes De Seguir De Viaje
TTITLE9=Cuando El Amor Se Va De Casa
EXTD=
EXTT0=
EXTT1=
EXTT2=
EXTT3=
EXTT4=
EXTT5=
EXTT6=
EXTT7=
EXTT8=
EXTT9=
PLAYORDER=
